<?xml version="1.0" standalone="no"?>
<!DOCTYPE svg PUBLIC "-//W3C//DTD SVG 20010904//EN"
 "http://www.w3.org/TR/2001/REC-SVG-20010904/DTD/svg10.dtd">
<svg version="1.0" xmlns="http://www.w3.org/2000/svg"
 width="1024.000000pt" height="1024.000000pt" viewBox="0 0 1024.000000 1024.000000"
 preserveAspectRatio="xMidYMid meet">

<g transform="translate(0.000000,1024.000000) scale(0.100000,-0.100000)"
fill="#000000" stroke="000">
<path d="M5430 8564 c-495 -54 -952 -235 -1356 -537 -213 -160 -448 -410 -586
-625 l-73 -113 -95 6 c-248 16 -559 -50 -795 -168 -300 -149 -560 -431 -698
-757 -36 -85 -90 -283 -102 -371 -4 -34 -12 -49 -28 -57 -35 -16 -155 -116
-236 -195 -302 -296 -494 -654 -572 -1067 -29 -154 -36 -429 -15 -593 58 -448
259 -853 585 -1178 128 -128 231 -209 371 -294 246 -149 508 -252 793 -312
l122 -25 2450 0 c2437 0 2451 0 2565 21 425 76 817 254 1092 495 429 375 679
863 717 1397 11 149 1 341 -24 484 -106 602 -512 1158 -1040 1422 -49 25 -91
46 -92 47 -1 0 -7 48 -13 106 -51 467 -241 912 -554 1300 -82 101 -273 297
-371 379 -302 254 -697 460 -1070 556 -344 89 -655 114 -975 79z m410 -394
c223 -17 385 -49 591 -115 676 -219 1232 -760 1464 -1425 65 -189 103 -450 90
-636 -5 -77 -3 -103 7 -111 7 -5 49 -22 93 -37 114 -40 295 -135 403 -213 115
-83 282 -249 368 -368 77 -107 181 -313 224 -445 56 -172 73 -307 67 -530 -8
-279 -46 -439 -159 -665 -222 -442 -621 -748 -1147 -879 -215 -54 -70 -51
-2646 -51 -2676 0 -2432 -6 -2686 69 -438 129 -781 387 -1009 761 -84 137
-152 314 -191 500 -20 95 -24 138 -23 310 0 168 3 216 22 301 32 148 66 243
137 389 80 161 172 291 295 415 109 110 175 163 304 240 l91 55 2 100 c4 209
65 409 173 570 69 104 214 248 315 313 252 164 585 212 918 132 45 -11 85 -20
89 -20 4 0 31 46 59 103 117 235 246 416 418 587 391 388 922 623 1481 653 30
2 69 4 85 5 17 1 91 -3 165 -8z"/>
<path d="M4913 5920 c-186 -34 -371 -177 -464 -361 -52 -105 -69 -189 -79
-411 0 -5 -8 -8 -17 -8 -30 -1 -96 -35 -127 -66 -37 -37 -66 -99 -66 -145 0
-97 74 -197 165 -221 38 -10 45 -16 45 -38 0 -14 1 -347 2 -740 3 -792 -1
-745 70 -825 109 -125 298 -95 381 60 22 40 22 43 25 788 l2 747 113 0 c160 0
214 20 281 103 26 32 31 48 34 106 5 76 -14 125 -65 173 -50 48 -90 58 -233
58 l-130 0 0 63 c0 94 22 158 71 202 51 45 87 61 174 75 113 18 166 55 205
143 42 94 -3 209 -104 271 -43 27 -58 30 -140 32 -50 2 -114 -1 -143 -6z"/>
<path d="M5577 5916 c-96 -35 -157 -117 -165 -225 -6 -87 22 -155 86 -212 86
-75 196 -87 296 -30 158 88 181 286 49 413 -65 63 -176 86 -266 54z"/>
<path d="M6269 5740 c-106 -32 -151 -162 -88 -254 80 -118 258 -87 300 52 35
120 -90 239 -212 202z"/>
<path d="M7045 5194 c-145 -21 -258 -58 -359 -116 l-68 -40 -30 37 c-17 20
-49 48 -72 63 -36 24 -51 27 -128 27 -80 0 -89 -2 -129 -30 -24 -17 -57 -53
-74 -80 l-30 -48 0 -682 0 -682 30 -49 c87 -141 277 -162 380 -41 61 71 65
100 65 474 0 310 1 338 21 395 96 287 428 420 701 282 62 -31 144 -111 183
-177 59 -101 59 -102 65 -497 l5 -365 29 -58 c74 -152 259 -179 378 -57 30 31
51 64 58 91 8 29 10 157 8 413 -4 349 -6 375 -27 446 -122 407 -466 679 -880
695 -53 2 -109 1 -126 -1z"/>
<path d="M3090 5175 c-167 -31 -320 -113 -446 -239 -93 -93 -143 -168 -184
-277 -91 -245 -56 -538 89 -759 50 -77 154 -186 226 -239 175 -127 425 -195
638 -171 199 23 396 94 489 178 133 120 92 332 -74 381 -56 17 -106 7 -222
-46 -105 -47 -201 -73 -278 -73 -119 0 -251 53 -332 134 l-51 51 165 6 c184 6
254 21 427 88 124 49 181 77 297 149 157 97 202 166 194 301 -5 93 -43 166
-138 262 -120 121 -242 194 -402 239 -96 28 -293 35 -398 15z m331 -444 c30
-12 64 -27 74 -35 18 -13 14 -16 -50 -49 -151 -75 -205 -89 -372 -95 -172 -5
-177 -3 -125 60 58 70 131 118 209 138 61 15 201 5 264 -19z"/>
<path d="M5629 5169 c-58 -9 -95 -28 -136 -71 -71 -73 -68 -43 -71 -752 -3
-703 -3 -700 58 -783 99 -134 312 -113 396 39 l29 53 3 648 c2 420 -1 661 -8
686 -33 124 -146 199 -271 180z"/>
</g>
</svg>
