<?xml version="1.0" standalone="no"?>
<!DOCTYPE svg PUBLIC "-//W3C//DTD SVG 20010904//EN"
 "http://www.w3.org/TR/2001/REC-SVG-20010904/DTD/svg10.dtd">
<svg version="1.0" xmlns="http://www.w3.org/2000/svg"
 width="56.000000pt" height="75.000000pt" viewBox="0 0 56.000000 75.000000"
 preserveAspectRatio="xMidYMid meet">

<g transform="translate(0.000000,75.000000) scale(0.100000,-0.100000)"
fill="#000000" stroke="none">
<path d="M326 644 c-29 -29 -24 -74 16 -137 20 -31 28 -53 23 -65 -6 -15 -8
-15 -15 5 -10 25 -58 53 -91 53 -36 0 -107 -39 -130 -71 l-20 -29 26 -10 c14
-5 35 -10 46 -10 41 0 78 -28 82 -62 l4 -33 1 36 c2 31 7 39 32 49 33 14 80
63 80 84 0 7 -13 33 -30 57 -34 51 -39 98 -11 123 15 14 20 14 29 3 16 -19 -6
-41 -25 -26 -9 8 -13 8 -13 0 0 -12 11 -14 47 -12 12 1 26 -6 32 -16 9 -16 10
-15 11 10 0 20 -8 32 -32 47 -40 24 -42 24 -62 4z m84 -35 c0 -6 -4 -7 -10 -4
-5 3 -10 11 -10 16 0 6 5 7 10 4 6 -3 10 -11 10 -16z m-106 -131 c67 -30 31
-108 -49 -108 -28 0 -41 15 -20 24 8 3 15 16 14 28 0 15 -3 18 -6 8 -13 -36
-68 -52 -103 -30 -24 15 37 73 71 68 19 -3 25 0 22 9 -6 17 36 17 71 1z"/>
<path d="M222 323 c-35 -51 -35 -53 -5 -52 17 1 21 3 10 6 -17 4 -16 7 3 39
26 41 19 46 -8 7z"/>
<path d="M310 273 c19 -3 44 -12 54 -21 18 -16 18 -16 7 6 -10 18 -19 22 -54
20 -40 -1 -41 -1 -7 -5z"/>
<path d="M262 193 c-2 -54 0 -63 16 -63 11 0 13 3 5 8 -6 4 -13 32 -16 62 l-3
55 -2 -62z"/>
</g>
</svg>
