<?xml version="1.0" standalone="no"?>
<!DOCTYPE svg PUBLIC "-//W3C//DTD SVG 20010904//EN"
 "http://www.w3.org/TR/2001/REC-SVG-20010904/DTD/svg10.dtd">
<svg version="1.0" xmlns="http://www.w3.org/2000/svg"
 width="95.000000pt" height="112.000000pt" viewBox="0 0 95.000000 112.000000"
 preserveAspectRatio="xMidYMid meet">

<g transform="translate(0.000000,112.000000) scale(0.100000,-0.100000)"
fill="#fff" stroke="#fff">
<path d="M0 560 l0 -560 475 0 475 0 0 560 0 560 -475 0 -475 0 0 -560z m810
5 l0 -395 -335 0 -335 0 0 395 0 395 335 0 335 0 0 -395z"/>
<path d="M287 875 c-45 -15 -82 -47 -105 -90 -14 -25 -17 -64 -17 -245 0 -211
0 -216 25 -259 42 -75 75 -85 272 -89 183 -4 230 4 279 45 54 46 59 71 59 301
0 196 -1 210 -22 252 -27 52 -60 78 -114 90 -62 15 -333 11 -377 -5z m412 -30
c19 -11 43 -33 55 -48 20 -27 21 -40 21 -257 0 -215 -1 -230 -21 -256 -35 -48
-69 -67 -121 -68 -26 0 -57 3 -67 8 -15 7 -17 6 -11 -3 6 -10 -20 -12 -126
-10 -155 5 -188 17 -223 84 -18 35 -21 61 -24 211 -5 203 6 270 48 313 43 42
86 50 270 48 145 -2 169 -4 199 -22z"/>
<path d="M637 772 c-9 -10 -20 -34 -23 -53 -10 -54 -51 -116 -105 -159 -57
-45 -203 -134 -236 -144 -12 -4 -32 -19 -43 -34 -20 -25 -21 -27 -3 -40 17
-13 17 -14 0 -23 -42 -24 1 -24 117 -1 69 13 132 22 140 19 24 -9 19 -52 -6
-71 l-23 -17 27 6 c15 3 38 1 51 -4 20 -8 27 -6 31 5 4 11 10 12 25 4 27 -14
31 -13 31 10 0 15 -7 20 -25 20 -37 0 -35 47 3 61 37 14 82 58 98 96 9 20 14
69 14 126 0 78 3 97 18 110 10 10 24 17 30 17 19 0 14 13 -23 53 -38 41 -72
48 -98 19z m79 -27 c15 -23 15 -26 -5 -54 -13 -18 -21 -45 -21 -68 l0 -40 -49
16 c-46 15 -49 17 -37 36 7 11 16 34 20 50 14 63 28 85 52 85 14 0 30 -10 40
-25z m-51 -172 c33 -17 36 -21 32 -54 -7 -57 -37 -109 -78 -136 -40 -26 -45
-27 -257 -22 -109 2 -121 4 -108 17 12 12 43 16 143 16 119 1 132 3 186 29 55
28 117 90 103 104 -4 4 -18 -7 -32 -25 -33 -42 -72 -43 -116 -3 -29 27 -31 31
-18 45 21 20 71 46 92 46 9 0 33 -8 53 -17z m-100 -114 c29 -12 29 -13 6 -17
-33 -5 -68 5 -92 29 -16 16 -18 23 -8 35 10 13 16 11 38 -10 14 -14 40 -30 56
-37z m-96 -4 c13 -14 27 -25 32 -25 5 0 9 -4 9 -9 0 -11 -99 -21 -150 -14
l-42 6 53 33 c30 19 59 34 64 34 6 0 21 -12 34 -25z m-112 -111 c-10 -10 -77
-22 -77 -14 0 5 6 11 13 13 17 8 72 8 64 1z m193 -29 c0 -16 -6 -25 -15 -25
-9 0 -15 9 -15 25 0 16 6 25 15 25 9 0 15 -9 15 -25z"/>
<path d="M670 740 c0 -5 5 -10 10 -10 6 0 10 5 10 10 0 6 -4 10 -10 10 -5 0
-10 -4 -10 -10z"/>
</g>
</svg>
